Coordinates
version=1
nRows=7
nColumns=40
inDegrees=yes

Units are S.I. units (second, meters, Newtons, ...)
Angles are in degrees.

endheader
time	pelvis_tilt	pelvis_list	pelvis_rotation	pelvis_tx	pelvis_ty	pelvis_tz	hip_flexion_r	hip_adduction_r	hip_rotation_r	knee_angle_r	knee_angle_r_beta	ankle_angle_r	subtalar_angle_r	mtp_angle_r	hip_flexion_l	hip_adduction_l	hip_rotation_l	knee_angle_l	knee_angle_l_beta	ankle_angle_l	subtalar_angle_l	mtp_angle_l	lumbar_extension	lumbar_bending	lumbar_rotation	arm_flex_r	arm_add_r	arm_rot_r	elbow_flex_r	pro_sup_r	wrist_flex_r	wrist_dev_r	arm_flex_l	arm_add_l	arm_rot_l	elbow_flex_l	pro_sup_l	wrist_flex_l	wrist_dev_l
     46.59500000	     -0.55681900	     -3.05812307	     -0.80179463	      1.06156839	      0.92825400	      0.46214082	     17.52226391	     -1.16760599	     -9.61719747	     22.63296129	     22.63296129	      8.00846909	     -2.60373266	     -4.46465397	      2.88148808	     -8.52321929	     -8.27812271	     29.33740027	     29.33740027	     16.99534842	    -11.06843119	     -3.43775562	     -9.04397901	      5.36960721	      0.22147303	     -1.31771990	    -11.71866897	     -5.27549077	     30.61045877	     46.15523071	      0.00000000	      0.00000000	     15.83410765	    -15.86099928	    -12.82322442	     51.76655333	     47.07446521	      0.00000000	      0.00000000
     46.60885714	     -0.57694322	     -3.25312605	     -0.29057710	      1.06098482	      0.92895963	      0.46506397	     16.82488770	     -0.86224627	    -10.39348473	     22.06209533	     22.06209533	      8.25511231	     -2.11169928	     -4.63938103	      5.08942981	     -9.26405864	     -7.02776041	     33.58751651	     33.58751651	     15.65677238	    -12.71611974	     -3.95031718	     -9.11438073	      5.63800779	      0.31200966	      0.24265922	    -11.89537356	     -5.39225915	     31.51768237	     46.13729188	      0.00000000	      0.00000000	     15.13727291	    -15.24752926	    -12.24885073	     50.34363502	     46.99806264	      0.00000000	      0.00000000
     46.62271429	     -0.43049444	     -3.42615637	      0.21849440	      1.06016731	      0.92988524	      0.46783461	     15.98367371	     -0.58403405	    -11.19981831	     21.54068938	     21.54068938	      8.46548137	     -1.67331889	     -4.76089736	      7.23832015	     -9.92782311	     -5.84373196	     37.86453841	     37.86453841	     14.20344786	    -14.09798113	     -4.17934266	     -9.48132366	      5.91278830	      0.56064283	      1.99850632	    -12.14072025	     -5.46762597	     32.40244598	     46.11939602	      0.00000000	      0.00000000	     14.49636110	    -14.61213953	    -11.76831634	     49.19153353	     46.93384326	      0.00000000	      0.00000000
     46.63657143	     -0.61248095	     -3.53785359	      0.85707244	      1.05897065	      0.93024615	      0.47021697	     15.47755987	     -0.48771418	    -12.38702785	     20.97025050	     20.97025050	      8.65530980	     -0.49123020	     -5.48179033	      9.99517571	    -10.28080323	     -4.15365733	     42.22472947	     42.22472947	     12.82280969	    -15.70295775	     -3.42196620	     -9.30314698	      6.10110685	      0.34496185	      3.57688261	    -12.42941058	     -5.50944599	     34.17450685	     46.05731183	      0.00000000	      0.00000000	     14.26552497	    -14.21661033	    -10.22489182	     45.55910472	     46.74689659	      0.00000000	      0.00000000
     46.65042857	     -0.60627901	     -3.85830424	      1.42047644	      1.05766507	      0.93079129	      0.47278288	     14.74965875	     -0.00615972	    -13.15716214	     20.28136669	     20.28136669	      8.77153100	     -0.08387303	     -5.55984565	     12.54840578	    -10.97099996	     -2.95029666	     46.31641200	     46.31641200	     11.47719095	    -16.39789861	     -3.11051052	     -9.50557018	      6.48949598	      0.80140889	      5.25968095	    -12.91493581	     -5.58131918	     35.14523425	     46.03445877	      0.00000000	      0.00000000	     13.61810075	    -13.35991810	     -9.61947068	     44.46814713	     46.66826695	      0.00000000	      0.00000000
     46.66428571	     -0.63730771	     -3.98445001	      2.00590404	      1.05620480	      0.93126129	      0.47497226	     14.09314645	      0.15697364	    -14.28956503	     19.64630560	     19.64630560	      8.69495567	      0.92361534	     -6.57139601	     15.24511078	    -11.23755346	     -1.63181320	     50.30319561	     50.30319561	     11.87428077	    -16.33542602	      1.57029660	     -9.59598672	      6.70759845	      1.44984138	      6.23445946	    -13.68166109	     -5.29430657	     37.98587224	     45.90182148	      0.00000000	      0.00000000	     14.14280070	    -12.79881119	     -6.78645789	     40.03639165	     46.34454581	      0.00000000	      0.00000000
     46.67814286	     -0.65784642	     -4.22759001	      2.48832587	      1.05467049	      0.93163799	      0.47733205	     13.50759944	      0.59191541	    -14.83544183	     19.07702041	     19.07702041	      8.78283971	      1.10302478	     -6.53509370	     17.67317842	    -11.74080394	     -0.74445862	     53.34499750	     53.34499750	     10.77869237	    -16.63083622	      1.84304845	     -9.77250351	      6.96582226	      1.87478066	      8.18284260	    -14.24879885	     -5.44504770	     38.98316897	     45.88447289	      0.00000000	      0.00000000	     13.14964179	    -12.02242780	     -6.38589177	     39.36027900	     46.28266545	      0.00000000	      0.00000000
